<svg width="109" height="109" viewBox="0 0 109 109" fill="none" xmlns="http://www.w3.org/2000/svg">
<path fill-rule="evenodd" clip-rule="evenodd" d="M54.5 109C24.3997 109 0 84.6003 0 54.5C0 24.3997 24.3997 0 54.5 0C84.6003 0 109 24.3997 109 54.5C109 84.6003 84.6003 109 54.5 109ZM65.5635 35.2615C64.7971 34.496 63.7582 34.0661 62.675 34.0661C61.5918 34.0661 60.5529 34.496 59.7865 35.2615L43.4365 51.6115C42.6711 52.3779 42.2411 53.4168 42.2411 54.5C42.2411 55.5832 42.6711 56.6221 43.4365 57.3885L59.7865 73.7385C60.1607 74.1401 60.612 74.4622 61.1134 74.6856C61.6148 74.909 62.156 75.0291 62.7049 75.0388C63.2537 75.0485 63.7988 74.9475 64.3078 74.742C64.8168 74.5364 65.2791 74.2304 65.6673 73.8423C66.0554 73.4541 66.3614 72.9918 66.567 72.4828C66.7725 71.9738 66.8735 71.4287 66.8638 70.8799C66.8541 70.331 66.734 69.7898 66.5106 69.2884C66.2872 68.787 65.9651 68.3357 65.5635 67.9615L52.102 54.5L65.5635 41.0385C66.329 40.2721 66.7589 39.2332 66.7589 38.15C66.7589 37.0668 66.329 36.0279 65.5635 35.2615Z" fill="#AFFC41"/>
</svg>
