<svg width="182" height="205" viewBox="0 0 182 205" fill="none" xmlns="http://www.w3.org/2000/svg">
<path d="M181.69 60.1013C181.76 56.932 180.996 53.7999 179.476 51.0182C177.9 48.3294 175.628 46.1153 172.899 44.6091C148.711 30.6434 124.515 16.6971 100.31 2.77031C93.7925 -0.998273 87.4753 -0.864576 80.9993 2.9625C71.3732 8.61956 23.167 36.2698 8.8029 44.6008C2.8868 48.0268 0.0123116 53.2744 0.0123116 60.0929V144.322C-0.0487432 147.424 0.68477 150.491 2.14311 153.23C3.71969 156 6.03371 158.28 8.82796 159.814C23.192 168.17 71.4066 195.787 81.0328 201.469C87.5087 205.296 93.8259 205.43 100.352 201.661C124.534 187.69 148.731 173.738 172.941 159.806C175.735 158.271 178.049 155.992 179.626 153.221C181.084 150.482 181.818 147.416 181.757 144.314V60.1013H181.69Z" fill="#004482"/>
<path d="M181.707 144.322C181.77 147.425 181.036 150.491 179.576 153.23C179.218 153.882 178.813 154.507 178.364 155.101L90.8513 102.208L172.9 44.6091C175.625 46.1159 177.894 48.33 179.467 51.0182C180.994 53.7977 181.761 56.9308 181.69 60.1013C181.707 88.1777 181.707 144.322 181.707 144.322Z" fill="#00599C"/>
<path d="M179.467 51.0182L2.11815 153.23C0.666302 150.492 -0.0614429 147.429 0.0040618 144.33V60.0929C0.0040618 53.2744 2.88691 48.0268 8.79465 44.6008C23.1671 36.2698 71.3732 8.61955 81.0078 2.94578C87.467 -0.881299 93.7926 -1.015 100.31 2.75359C124.493 16.7249 148.689 30.6768 172.899 44.6091C175.625 46.1159 177.894 48.33 179.467 51.0182Z" fill="#659AD2"/>
<path d="M94.3609 136.234C88.3891 136.242 82.5247 134.647 77.3801 131.614C72.2355 128.582 67.9996 124.224 65.1147 118.995C64.8194 118.471 64.5409 117.937 64.2791 117.391C60.7196 110.039 59.9795 101.638 62.1988 93.7776C64.4182 85.9173 69.4429 79.1437 76.3215 74.7395C83.2 70.3354 91.4548 68.6066 99.5225 69.8805C107.59 71.1543 114.911 75.3424 120.098 81.6517C120.54 82.1865 120.933 82.7463 121.376 83.3229C121.577 83.5986 121.777 83.8744 121.961 84.1585L151.266 67.2792C150.553 66.1317 149.806 65.0175 149.026 63.9368C148.617 63.3602 148.191 62.8087 147.79 62.2656C137.604 49.0335 122.83 40.0986 106.381 37.2231C89.9323 34.3475 73.003 37.7401 58.9324 46.7317C44.8617 55.7234 34.6713 69.6612 30.3708 85.7962C26.0704 101.931 27.9723 119.092 35.7013 133.894C35.9854 134.429 36.2779 134.955 36.5369 135.481C42.2133 145.497 50.3827 153.874 60.2518 159.801C70.121 165.728 81.3548 169.002 92.8628 169.306C104.371 169.611 115.762 166.935 125.931 161.538C136.099 156.141 144.7 148.207 150.898 138.506L122.245 121.184C119.212 125.81 115.074 129.608 110.206 132.235C105.338 134.862 99.8927 136.237 94.3609 136.234Z" fill="white"/>
</svg>
