<svg width="185" height="211" viewBox="0 0 185 211" fill="none" xmlns="http://www.w3.org/2000/svg">
<path d="M179.931 48.6532L97.477 1.19499C96.1113 0.341426 94.2335 0 92.1849 0C90.1364 0 88.2585 0.512139 86.8928 1.19499L4.95067 48.8239C2.04855 50.531 0 54.7988 0 58.0424V153.129C0 155.007 0.341426 157.227 1.70713 159.104L184.028 53.2624C183.004 51.2139 181.468 49.6775 179.931 48.6532Z" fill="#9B4F96"/>
<path d="M1.19507 158.934C2.04863 160.299 3.24362 161.494 4.43861 162.177L86.7222 209.806C88.0879 210.66 89.9657 211.001 92.0143 211.001C94.0628 211.001 95.9407 210.489 97.3064 209.806L179.249 162.177C182.151 160.47 184.199 156.202 184.199 152.959V57.8718C184.199 56.3353 184.029 54.6282 183.175 53.0918L1.19507 158.934Z" fill="#68217A"/>
<path d="M128.547 126.157C121.377 138.79 107.72 147.325 92.185 147.325C69.1388 147.325 50.3603 128.547 50.3603 105.501C50.3603 82.4543 69.1388 63.6759 92.185 63.6759C107.72 63.6759 121.377 72.2115 128.547 85.015L150.739 72.2115C139.131 51.8967 117.28 38.069 92.185 38.069C54.9696 38.069 24.7534 68.2852 24.7534 105.501C24.7534 142.716 54.9696 172.932 92.185 172.932C117.109 172.932 138.96 159.275 150.569 139.131L128.547 126.157ZM148.52 109.256L150.057 101.916H142.887V93.8921H151.593L153.642 83.3079H162.007L159.958 93.7214H166.445L168.494 83.3079H176.688L174.639 93.7214H178.736V101.745H173.103L171.566 109.086H178.736V117.109H170.03L167.981 127.352H159.617L161.665 117.109H155.178L153.129 127.352H144.935L146.984 117.109H142.887V109.086H148.52V109.256ZM156.714 109.256H163.202L164.738 101.916H158.251L156.714 109.256Z" fill="white"/>
</svg>
