<svg width="183" height="183" viewBox="0 0 183 183" fill="none" xmlns="http://www.w3.org/2000/svg">
<path d="M73.072 7.43236L64.2376 16.2663L76.3595 28.3876L89.0527 41.0801C91.9436 39.65 95.1518 38.9814 98.3734 39.1376C101.595 39.2938 104.723 40.2697 107.462 41.9728C110.202 43.6758 112.461 46.0498 114.026 48.8698C115.591 51.6899 116.41 54.8627 116.406 58.0879C116.338 60.9661 115.668 63.798 114.439 66.4015L127.513 79.094C130.941 77.1131 134.954 76.3906 138.858 77.0509C142.763 77.7113 146.314 79.7131 148.901 82.7113C150.708 84.4444 152.137 86.5326 153.098 88.8447C154.06 91.1568 154.532 93.6428 154.486 96.1463C154.49 101.145 152.54 105.948 149.053 109.53C147.298 111.363 145.184 112.813 142.842 113.789C140.501 114.765 137.983 115.247 135.446 115.204C132.937 115.243 130.445 114.775 128.122 113.826C125.799 112.877 123.692 111.468 121.928 109.683C118.939 107.075 116.95 103.509 116.302 99.5954C115.653 95.6821 116.386 91.6651 118.374 88.2325L105.681 75.1593C105.039 75.4493 104.383 75.7036 103.713 75.9208V116.41C107.398 117.722 110.589 120.137 112.852 123.327C115.163 126.498 116.407 130.32 116.406 134.243C116.456 136.756 115.987 139.252 115.028 141.576C114.069 143.9 112.642 146.001 110.834 147.747C107.378 151.199 102.72 153.18 97.8363 153.275C94.3072 153.385 90.8176 152.506 87.7623 150.736C84.7071 148.966 82.208 146.377 80.5479 143.261C78.8877 140.145 78.1328 136.627 78.3684 133.104C78.604 129.581 79.8208 126.194 81.8811 123.327C84.1445 120.137 87.3355 117.722 91.0201 116.41V75.9208C87.3275 74.6233 84.1324 72.2049 81.8811 69.0035C79.5628 65.8369 78.3175 62.0123 78.327 58.0879C78.3216 55.2008 78.9956 52.3529 80.2944 49.7744L55.5428 25.0241L7.44227 73.0777C5.08343 75.4347 3.21208 78.2332 1.93511 81.3135C0.658148 84.3938 0.000589763 87.6954 3.96536e-07 91.0299C-0.00058897 94.3644 0.655802 97.6663 1.93168 100.747C3.20755 103.828 5.07792 106.627 7.43592 108.985L73.072 174.617C77.8326 179.376 84.2886 182.05 91.0201 182.05C97.7516 182.05 104.208 179.376 108.968 174.617L174.617 108.972C179.376 104.212 182.05 97.756 182.05 91.0249C182.05 84.2937 179.376 77.8381 174.617 73.0777L108.968 7.43236C104.208 2.67342 97.7516 0 91.0201 0C84.2886 0 77.8326 2.67342 73.072 7.43236Z" fill="#E64A19"/>
</svg>
