<svg width="120" height="120" viewBox="0 0 120 120" fill="none" xmlns="http://www.w3.org/2000/svg">
<g clip-path="url(#clip0_305_134)">
<path d="M91.875 0H28.125C12.592 0 0 12.592 0 28.125V91.875C0 107.408 12.592 120 28.125 120H91.875C107.408 120 120 107.408 120 91.875V28.125C120 12.592 107.408 0 91.875 0Z" fill="#F4F2ED"/>
<path d="M19.5169 95.1745H34.4316V58.9528L13.125 42.9731V88.7827C13.125 92.3194 15.9909 95.1745 19.5169 95.1745Z" fill="#4285F4"/>
<path d="M85.5679 95.1745H100.483C104.02 95.1745 106.875 92.3086 106.875 88.7827V42.9727L85.5679 58.9528" fill="#34A853"/>
<path d="M85.5679 31.254V58.9529L106.875 42.9732V34.4495C106.875 26.545 97.8515 22.0384 91.5341 26.7793" fill="#FBBC04"/>
<path d="M34.4321 58.9528V31.2544L60.0001 50.4295L85.5681 31.2534V58.9523L60.0001 78.1289" fill="#EA4335"/>
<path d="M13.125 34.4497V42.9725L34.4316 58.9527V31.2543L28.4658 26.7796C22.1377 22.0386 13.125 26.5452 13.125 34.4497Z" fill="#C5221F"/>
</g>
<defs>
<clipPath id="clip0_305_134">
<rect width="120" height="120" fill="white"/>
</clipPath>
</defs>
</svg>
