<svg width="183" height="179" viewBox="0 0 183 179" fill="none" xmlns="http://www.w3.org/2000/svg">
<path d="M32.4286 6.10352e-05H150.571C168.429 6.10352e-05 183 14.4286 183 32.4286V146C183 163.857 168.571 178.429 150.571 178.429H32.4286C14.4286 178.286 0 163.857 0 145.857V32.4286C0 14.4286 14.4286 6.10352e-05 32.4286 6.10352e-05Z" fill="#330000"/>
<path d="M88.4286 106.714H60L54.2857 124.572C54.1429 125.286 53.5714 125.714 52.8571 125.572H38.5714C37.7143 125.572 37.5714 125.143 37.7143 124.143L62.2857 53.5716C62.5714 52.8573 62.7143 52.0002 63 51.0002C63.2857 49.4287 63.4286 47.7145 63.4286 46.0002C63.2857 45.5716 63.7143 45.2859 64 45.143H83.7143C84.2857 45.143 84.5714 45.4287 84.7143 45.7145L112.571 124.143C112.857 125 112.571 125.429 111.857 125.429H95.8571C95.2857 125.572 94.8571 125.143 94.5714 124.572L88.4286 106.714ZM64.4286 91.143H83.7143C83.2857 89.5716 82.7143 87.5716 82 85.7145C81.2857 83.7145 80.5714 81.4287 80 79.143C79.2857 76.7145 78.5714 74.4287 77.8571 72.143C77.1428 69.7145 76.4286 67.5716 75.8571 65.4287C75.2857 63.2859 74.7143 61.2859 74.1429 59.4287H74C73.2857 62.7145 72.4286 66.0002 71.4286 69.2859C70.2857 73.0002 69.1428 76.7145 67.8571 80.5716C66.7143 84.4287 65.5714 88.0002 64.4286 91.143ZM129.571 58.7145C127 58.8573 124.571 57.8573 122.857 56.0002C121.143 54.143 120.143 51.5716 120.286 49.0002C120.143 46.4287 121.143 44.0002 123 42.2859C124.857 40.5716 127.286 39.5716 129.714 39.5716C132.714 39.5716 135 40.4287 136.714 42.2859C138.429 44.143 139.286 46.5716 139.286 49.0002C139.429 51.5716 138.429 54.143 136.571 56.0002C134.714 57.8573 132.143 58.8573 129.571 58.7145ZM121 124.857V66.143C121 65.4287 121.286 65.143 122 65.143H137.143C137.857 65.143 138.143 65.5716 138.143 66.143V124.857C138.143 125.714 137.857 126.143 137.143 126.143H122.143C121.429 126 121 125.572 121 124.857Z" fill="#FF9A00"/>
</svg>
