<svg width="181" height="180" viewBox="0 0 181 180" fill="none" xmlns="http://www.w3.org/2000/svg">
<path d="M89.8064 0C43.8785 0 46.7462 19.9171 46.7462 19.9171L46.7972 40.5518H90.6254V46.7469H29.3893C29.3893 46.7469 0 43.4138 0 89.7547C0 136.097 25.6517 134.454 25.6517 134.454H40.9605V112.949C40.9605 112.949 40.1352 87.2973 66.2028 87.2973H109.673C109.673 87.2973 134.095 87.6918 134.095 63.6936V24.0138C134.095 24.0138 137.804 0 89.8064 0ZM65.6396 13.8764C66.6753 13.8755 67.701 14.0788 68.658 14.4747C69.615 14.8706 70.4846 15.4514 71.217 16.1837C71.9493 16.9161 72.53 17.7856 72.9259 18.7427C73.3219 19.6997 73.5252 20.7254 73.5242 21.7611C73.5252 22.7968 73.3219 23.8225 72.9259 24.7795C72.53 25.7365 71.9493 26.6061 71.217 27.3385C70.4846 28.0708 69.615 28.6515 68.658 29.0475C67.701 29.4434 66.6753 29.6467 65.6396 29.6457C64.6039 29.6467 63.5782 29.4434 62.6212 29.0475C61.6641 28.6515 60.7946 28.0708 60.0622 27.3385C59.3299 26.6061 58.7491 25.7365 58.3532 24.7795C57.9573 23.8225 57.754 22.7968 57.7549 21.7611C57.754 20.7254 57.9573 19.6997 58.3532 18.7427C58.7491 17.7856 59.3299 16.9161 60.0622 16.1837C60.7946 15.4514 61.6641 14.8706 62.6212 14.4747C63.5782 14.0788 64.6039 13.8755 65.6396 13.8764Z" fill="url(#paint0_linear_305_229)"/>
<path d="M91.1107 179.976C137.039 179.976 134.171 160.059 134.171 160.059L134.12 139.425H90.2911V133.23H151.527C151.527 133.23 180.916 136.563 180.916 90.2202C180.916 43.8786 155.265 45.5221 155.265 45.5221H139.956V67.026C139.956 67.026 140.781 92.6777 114.714 92.6777H71.2439C71.2439 92.6777 46.8213 92.2832 46.8213 116.282V155.963C46.8213 155.963 43.1128 179.976 91.11 179.976M115.277 166.101C114.241 166.102 113.215 165.898 112.258 165.502C111.301 165.106 110.432 164.526 109.699 163.793C108.967 163.061 108.386 162.191 107.99 161.234C107.595 160.277 107.391 159.252 107.392 158.216C107.391 157.18 107.594 156.154 107.99 155.197C108.386 154.24 108.967 153.371 109.699 152.638C110.432 151.906 111.301 151.325 112.258 150.929C113.215 150.533 114.241 150.33 115.277 150.331C116.313 150.33 117.338 150.533 118.295 150.929C119.252 151.325 120.122 151.906 120.854 152.638C121.587 153.37 122.167 154.24 122.563 155.197C122.959 156.154 123.162 157.18 123.162 158.215C123.162 159.251 122.959 160.277 122.563 161.234C122.167 162.191 121.587 163.06 120.854 163.793C120.122 164.525 119.252 165.106 118.295 165.502C117.338 165.898 116.313 166.102 115.277 166.101Z" fill="url(#paint1_linear_305_229)"/>
<defs>
<linearGradient id="paint0_linear_305_229" x1="1738.6" y1="1618.77" x2="10704.3" y2="10495" gradientUnits="userSpaceOnUse">
<stop stop-color="#387EB8"/>
<stop offset="1" stop-color="#366994"/>
</linearGradient>
<linearGradient id="paint1_linear_305_229" x1="2613" y1="2812.58" x2="12241.1" y2="11914.3" gradientUnits="userSpaceOnUse">
<stop stop-color="#FFE052"/>
<stop offset="1" stop-color="#FFC331"/>
</linearGradient>
</defs>
</svg>
