<svg width="120" height="120" viewBox="0 0 120 120" fill="none" xmlns="http://www.w3.org/2000/svg">
<g clip-path="url(#clip0_305_131)">
<path d="M60 0C44.0906 0 28.8188 6.32531 17.5781 17.5734C6.32599 28.8261 0.00321983 44.0867 0 60C0 75.9066 6.32812 91.1784 17.5781 102.427C28.8188 113.675 44.0906 120 60 120C75.9094 120 91.1813 113.675 102.422 102.427C113.672 91.1784 120 75.9066 120 60C120 44.0934 113.672 28.8216 102.422 17.5734C91.1813 6.32531 75.9094 0 60 0Z" fill="url(#paint0_linear_305_131)"/>
<path d="M27.1595 59.3662C44.6532 51.7462 56.3157 46.7225 62.147 44.295C78.8157 37.364 82.2751 36.1603 84.5345 36.1195C85.0313 36.1115 86.1376 36.2343 86.8595 36.8179C87.4595 37.3101 87.6282 37.9757 87.7126 38.4431C87.7876 38.91 87.8907 39.974 87.8063 40.8047C86.9063 50.2922 82.997 73.3153 81.0095 83.9418C80.1751 88.4381 78.5157 89.9456 76.9126 90.0928C73.4251 90.4134 70.7813 87.7903 67.4063 85.5787C62.1282 82.1165 59.147 79.9622 54.0188 76.5843C48.0938 72.6806 51.9376 70.5347 55.3126 67.0284C56.1938 66.1106 71.5501 52.1465 71.8407 50.88C71.8782 50.7215 71.9157 50.1309 71.5595 49.8197C71.2126 49.5075 70.697 49.6143 70.322 49.6987C69.7876 49.8187 61.3595 55.395 45.0095 66.4265C42.6188 68.0709 40.4532 68.8725 38.5032 68.8303C36.3657 68.7843 32.2407 67.619 29.1751 66.6234C25.4251 65.4018 22.4345 64.7559 22.697 62.6812C22.8282 61.6012 24.3188 60.4959 27.1595 59.3662Z" fill="white"/>
</g>
<defs>
<linearGradient id="paint0_linear_305_131" x1="6000" y1="0" x2="6000" y2="12000" gradientUnits="userSpaceOnUse">
<stop stop-color="#2AABEE"/>
<stop offset="1" stop-color="#229ED9"/>
</linearGradient>
<clipPath id="clip0_305_131">
<rect width="120" height="120" fill="white"/>
</clipPath>
</defs>
</svg>
